# xmcd CD database file
#
# Track frame offsets:
#	150
#	13040
#	30435
#	46840
#	68915
#	82205
#	93835
#	111295
#	127352
#	138122
#	157832
#	171945
#	193545
#	208717
#	222932
#	247717
#	260220
#	272390
#	291445
#
# Disc length: 4217 seconds
#
# Revision: 0
# Processed by: cddbd v1.4PL0 Copyright (c) Steve Scherf et al.
# Submitted via: CDex 1.50beta10
#
DISCID=13107713
DTITLE=Billy Hawks - New genius of the blues (1-10) - More heavy soul (11-19)
DYEAR=1967
DGENRE=Jazz
TTITLE0=Got my mojo working (but it just won't work on you)
TTITLE1=I'll wait for you baby
TTITLE2=I got a woman
TTITLE3=Why do things happen to me
TTITLE4=Let me love you before you go
TTITLE5=I wish you love
TTITLE6=Mean woman blues
TTITLE7=I just want to make love to you
TTITLE8=Every time it rains
TTITLE9=Hawk's blues
TTITLE10=O'baby (I believe I'm losing you)
TTITLE11=Drown in my own tears
TTITLE12=Whip it on me
TTITLE13=What more can I do ?
TTITLE14=Heavy soul
TTITLE15=You've been a bad girl
TTITLE16=I'll be back
TTITLE17=I can make it
TTITLE18=That's your bag
EXTD=YEAR: 1967
EXTT0=
EXTT1=
EXTT2=
EXTT3=
EXTT4=
EXTT5=
EXTT6=
EXTT7=
EXTT8=
EXTT9=
EXTT10=
EXTT11=
EXTT12=
EXTT13=
EXTT14=
EXTT15=
EXTT16=
EXTT17=
EXTT18=
PLAYORDER=
